<svg width="415" height="852" viewBox="0 0 415 852" fill="none" xmlns="http://www.w3.org/2000/svg">
<rect x="10" y="10" width="395" height="832" rx="50" stroke="#1B1B1B" stroke-width="20"/>
<path fill-rule="evenodd" clip-rule="evenodd" d="M103.001 20C106.113 20 109.225 23.112 109.225 26.2241V24.668V20H103.001ZM109.225 20H306.839H312.285C309.173 20 306.839 22.334 306.839 25.4461V20.9915C306.837 27.7895 306.794 31.3161 305.858 34.1948C303.879 40.2786 299.109 45.0485 293.025 47.0274C290.01 48.0083 286.283 48.0083 278.83 48.0083H137.233C129.78 48.0083 126.054 48.0083 123.038 47.0274C116.954 45.0485 112.184 40.2786 110.206 34.1948C109.225 31.1793 109.225 27.4529 109.225 20ZM240.532 36C237.218 36 234.532 33.3137 234.532 30C234.532 26.6863 237.218 24 240.532 24C243.846 24 246.532 26.6863 246.532 30C246.532 33.3137 243.846 36 240.532 36ZM173.532 26C171.323 26 169.532 27.7909 169.532 30C169.532 32.2091 171.323 34 173.532 34H215.532C217.741 34 219.532 32.2091 219.532 30C219.532 27.7909 217.741 26 215.532 26H173.532ZM142.501 819C141.12 819 140.001 820.119 140.001 821.5C140.001 822.881 141.12 824 142.501 824H272.501C273.881 824 275.001 822.881 275.001 821.5C275.001 820.119 273.881 819 272.501 819H142.501ZM59.0855 41.185L59.0705 42.685V45.52L59.1005 48.37C59.1005 48.55 59.0205 48.7 58.8605 48.82C58.7105 48.93 58.5655 48.985 58.4255 48.985C58.2955 48.985 58.1905 48.925 58.1105 48.805C58.0305 48.675 57.9855 48.53 57.9755 48.37C57.9055 46.9 57.8705 45.38 57.8705 43.81C57.6105 44.15 57.0855 44.32 56.2955 44.32C55.7555 44.32 55.3105 44.04 54.9605 43.48C54.6105 42.92 54.4355 42.315 54.4355 41.665C54.4355 40.805 54.7005 40.15 55.2305 39.7C55.7705 39.24 56.4505 39.01 57.2705 39.01C58.0905 39.01 58.6555 39.325 58.9655 39.955C59.0455 40.125 59.0855 40.535 59.0855 41.185ZM57.9005 41.545L57.9155 40.81C57.9155 40.57 57.8955 40.415 57.8555 40.345C57.8155 40.265 57.7655 40.205 57.7055 40.165C57.6355 40.095 57.5505 40.06 57.4505 40.06C57.3605 40.06 57.2355 40.08 57.0755 40.12C56.9255 40.15 56.7255 40.22 56.4755 40.33C56.2355 40.43 56.0205 40.605 55.8305 40.855C55.6505 41.095 55.5605 41.41 55.5605 41.8C55.5605 42.19 55.6605 42.51 55.8605 42.76C56.0605 43.01 56.2705 43.135 56.4905 43.135C56.5505 43.135 56.6155 43.125 56.6855 43.105C57.2855 42.945 57.6905 42.785 57.9005 42.625V41.545ZM61.1584 42.715C61.3784 42.715 61.5684 42.795 61.7284 42.955C61.8984 43.115 61.9984 43.335 62.0284 43.615C62.0284 43.835 61.9434 44.04 61.7734 44.23C61.6134 44.41 61.4284 44.5 61.2184 44.5C61.0084 44.5 60.8184 44.44 60.6484 44.32C60.4784 44.2 60.3934 44.025 60.3934 43.795C60.3934 43.555 60.4684 43.315 60.6184 43.075C60.7684 42.835 60.9484 42.715 61.1584 42.715ZM61.3684 47.305C61.4484 47.305 61.5484 47.33 61.6684 47.38C61.7384 47.42 61.8134 47.53 61.8934 47.71C61.9834 47.89 62.0284 48.07 62.0284 48.25C62.0284 48.43 61.9434 48.6 61.7734 48.76C61.6034 48.91 61.4134 48.985 61.2034 48.985C60.9934 48.985 60.8184 48.91 60.6784 48.76C60.5484 48.6 60.4834 48.4 60.4834 48.16C60.4834 47.59 60.7784 47.305 61.3684 47.305ZM66.7747 45.685C66.4147 45.745 65.9047 45.775 65.2447 45.775C64.5847 45.775 64.1347 45.665 63.8947 45.445C63.6547 45.225 63.5347 44.75 63.5347 44.02C63.5347 43.28 63.5897 42.47 63.6997 41.59C63.8097 40.71 63.9297 40.065 64.0597 39.655C64.1997 39.235 64.4697 39.025 64.8697 39.025C65.1397 39.025 65.2947 39.14 65.3347 39.37V39.655C65.3347 39.785 65.3047 39.97 65.2447 40.21C65.0047 41.97 64.8847 43.225 64.8847 43.975C64.8847 44.155 64.8897 44.305 64.8997 44.425C65.0797 44.465 65.3197 44.485 65.6197 44.485C65.9297 44.485 66.3197 44.455 66.7897 44.395C66.8097 44.185 66.8197 43.905 66.8197 43.555C66.8197 43.195 66.8247 42.895 66.8347 42.655C66.8447 42.415 66.8797 42.245 66.9397 42.145C66.9997 42.045 67.1697 41.995 67.4497 41.995C67.7397 41.995 67.9197 42.045 67.9897 42.145C68.0697 42.245 68.1097 42.385 68.1097 42.565C68.1097 42.735 68.0947 43.1 68.0647 43.66C68.0347 44.21 68.0197 45.77 68.0197 48.34C68.0197 48.79 67.7997 49.015 67.3597 49.015H67.2997C66.9297 49.015 66.7447 48.71 66.7447 48.1V47.275L66.7747 45.685ZM73.3597 48.295C73.3597 48.785 73.0947 49.03 72.5647 49.03C72.4547 49.03 72.3547 48.985 72.2647 48.895C72.1847 48.795 72.1447 48.645 72.1447 48.445L72.0997 44.635C72.0997 43.375 72.1147 42.19 72.1447 41.08C71.8047 41.38 71.4747 41.725 71.1547 42.115C70.8347 42.505 70.6147 42.765 70.4947 42.895C70.3847 43.025 70.2347 43.155 70.0447 43.285C69.8647 43.405 69.6947 43.465 69.5347 43.465C69.3747 43.465 69.2447 43.41 69.1447 43.3C69.0547 43.19 69.0097 43.055 69.0097 42.895C69.0097 42.735 69.1247 42.52 69.3547 42.25C69.5947 41.97 70.4647 41.035 71.9647 39.445C72.1947 39.235 72.4847 39.13 72.8347 39.13C73.0047 39.13 73.1447 39.18 73.2547 39.28C73.3647 39.38 73.4197 39.495 73.4197 39.625L73.3147 43.66L73.3597 48.295ZM323.001 36H324.001C324.553 36 325.001 36.4477 325.001 37V45.6667C325.001 46.219 324.553 46.6667 324.001 46.6667H323.001C322.448 46.6667 322.001 46.219 322.001 45.6667V37C322.001 36.4477 322.448 36 323.001 36ZM319.334 38.3333H318.334C317.782 38.3333 317.334 38.781 317.334 39.3333V45.6666C317.334 46.2189 317.782 46.6666 318.334 46.6666H319.334C319.886 46.6666 320.334 46.2189 320.334 45.6666V39.3333C320.334 38.781 319.886 38.3333 319.334 38.3333ZM313.667 40.6667H314.667C315.219 40.6667 315.667 41.1145 315.667 41.6667V45.6667C315.667 46.219 315.219 46.6667 314.667 46.6667H313.667C313.115 46.6667 312.667 46.219 312.667 45.6667V41.6667C312.667 41.1145 313.115 40.6667 313.667 40.6667ZM309.001 42.6667H310.001C310.553 42.6667 311.001 43.1144 311.001 43.6667V45.6667C311.001 46.219 310.553 46.6667 310.001 46.6667H309.001C308.448 46.6667 308.001 46.219 308.001 45.6667V43.6667C308.001 43.1144 308.448 42.6667 309.001 42.6667ZM337.668 38.2845C339.892 38.2846 342.032 39.1387 343.644 40.6703C343.766 40.7885 343.96 40.787 344.079 40.6669L345.24 39.4966C345.301 39.4357 345.334 39.3532 345.334 39.2673C345.333 39.1815 345.299 39.0994 345.237 39.0392C341.005 34.9869 334.329 34.9869 330.097 39.0392C330.036 39.0993 330.001 39.1814 330.001 39.2673C330 39.3531 330.034 39.4356 330.094 39.4966L331.255 40.6669C331.375 40.7872 331.569 40.7887 331.69 40.6703C333.303 39.1386 335.443 38.2845 337.668 38.2845ZM337.668 42.0921C338.89 42.092 340.069 42.5459 340.975 43.3657C341.097 43.4821 341.29 43.4795 341.41 43.36L342.569 42.1897C342.63 42.1283 342.664 42.045 342.663 41.9585C342.662 41.872 342.627 41.7894 342.564 41.7293C339.805 39.1649 335.532 39.1649 332.773 41.7293C332.711 41.7894 332.675 41.872 332.674 41.9586C332.674 42.0451 332.708 42.1284 332.769 42.1897L333.928 43.36C334.047 43.4795 334.24 43.4821 334.363 43.3657C335.268 42.5465 336.446 42.0926 337.668 42.0921ZM339.99 44.6539C339.992 44.7407 339.958 44.8243 339.896 44.8851L337.89 46.9071C337.832 46.9665 337.751 47 337.668 47C337.584 47 337.504 46.9665 337.445 46.9071L335.44 44.8851C335.378 44.8243 335.344 44.7406 335.345 44.6538C335.347 44.567 335.385 44.4849 335.449 44.4267C336.73 43.3444 338.606 43.3444 339.886 44.4267C339.951 44.4849 339.988 44.5671 339.99 44.6539ZM354.601 37H368.067C368.83 37 369.343 37.0008 369.737 37.033C370.12 37.0643 370.303 37.1201 370.424 37.1817C370.737 37.3414 370.992 37.5964 371.152 37.91C371.214 38.0308 371.27 38.2138 371.301 38.5966C371.333 38.9911 371.334 39.5034 371.334 40.2667V43.0667C371.334 43.8299 371.333 44.3422 371.301 44.7367C371.27 45.1195 371.214 45.3026 371.152 45.4233C370.992 45.7369 370.737 45.9919 370.424 46.1517C370.303 46.2132 370.12 46.269 369.737 46.3003C369.343 46.3326 368.83 46.3333 368.067 46.3333H354.601C353.837 46.3333 353.325 46.3326 352.93 46.3003C352.548 46.269 352.365 46.2132 352.244 46.1517C351.93 45.9919 351.675 45.7369 351.516 45.4233C351.454 45.3026 351.398 45.1195 351.367 44.7367C351.335 44.3422 351.334 43.8299 351.334 43.0667V40.2667C351.334 39.5034 351.335 38.9911 351.367 38.5966C351.398 38.2138 351.454 38.0308 351.516 37.91C351.675 37.5964 351.93 37.3414 352.244 37.1817C352.365 37.1201 352.548 37.0643 352.93 37.033C353.325 37.0008 353.837 37 354.601 37ZM350.334 40.2667C350.334 38.7732 350.334 38.0265 350.624 37.456C350.88 36.9543 351.288 36.5463 351.79 36.2906C352.36 36 353.107 36 354.601 36H368.067C369.561 36 370.307 36 370.878 36.2906C371.38 36.5463 371.788 36.9543 372.043 37.456C372.334 38.0265 372.334 38.7732 372.334 40.2667V43.0667C372.334 44.5601 372.334 45.3069 372.043 45.8773C371.788 46.3791 371.38 46.787 370.878 47.0427C370.307 47.3333 369.561 47.3333 368.067 47.3333H354.601C353.107 47.3333 352.36 47.3333 351.79 47.0427C351.288 46.787 350.88 46.3791 350.624 45.8773C350.334 45.3069 350.334 44.5601 350.334 43.0667V40.2667ZM373.334 43.6667C374.139 43.328 374.662 42.5399 374.662 41.6667C374.662 40.7936 374.139 40.0055 373.334 39.6667V43.6667ZM352.479 38.728C352.334 39.0132 352.334 39.3866 352.334 40.1333V43.2C352.334 43.9467 352.334 44.3201 352.479 44.6053C352.607 44.8562 352.811 45.0602 353.062 45.188C353.347 45.3333 353.72 45.3333 354.467 45.3333H368.201C368.947 45.3333 369.321 45.3333 369.606 45.188C369.857 45.0602 370.061 44.8562 370.189 44.6053C370.334 44.3201 370.334 43.9467 370.334 43.2V40.1333C370.334 39.3866 370.334 39.0132 370.189 38.728C370.061 38.4771 369.857 38.2732 369.606 38.1453C369.321 38 368.947 38 368.201 38H354.467C353.72 38 353.347 38 353.062 38.1453C352.811 38.2732 352.607 38.4771 352.479 38.728Z" fill="#1B1B1B"/>
</svg>
